<?xml version="1.0" encoding="UTF-8" standalone="no"?>
<svg
   version="1.0"
   id="Layer_1"
   x="0px"
   y="0px"
   xml:space="preserve"
   viewBox="78 31 128 128"
   sodipodi:docname="Discord New 2021 Icon-cropped.svg"
   width="128"
   height="128"
   inkscape:version="1.4 (86a8ad7, 2024-10-11)"
   xmlns:inkscape="http://www.inkscape.org/namespaces/inkscape"
   xmlns:sodipodi="http://sodipodi.sourceforge.net/DTD/sodipodi-0.dtd"
   xmlns:xlink="http://www.w3.org/1999/xlink"
   xmlns="http://www.w3.org/2000/svg"
   xmlns:svg="http://www.w3.org/2000/svg"><defs
   id="defs3" /><sodipodi:namedview
   id="namedview3"
   pagecolor="#505050"
   bordercolor="#eeeeee"
   borderopacity="1"
   inkscape:showpageshadow="0"
   inkscape:pageopacity="0"
   inkscape:pagecheckerboard="0"
   inkscape:deskcolor="#505050"
   inkscape:zoom="2.8284271"
   inkscape:cx="27.400388"
   inkscape:cy="78.488852"
   inkscape:window-width="1920"
   inkscape:window-height="1017"
   inkscape:window-x="-8"
   inkscape:window-y="-8"
   inkscape:window-maximized="1"
   inkscape:current-layer="Layer_1" />
<style
   type="text/css"
   id="style1">
	.st0{clip-path:url(#SVGID_2_);}
	.st1{fill:#5865F2;}
	.st2{fill:#FFFFFF;}
	.st3{fill:none;}
</style>
<g
   id="g3"
   transform="matrix(0.7459261,0,0,0.7459261,19.817765,7.8762912)">
	<defs
   id="defs1">
		<rect
   id="SVGID_1_"
   x="78"
   y="31"
   width="172"
   height="172" />
	</defs>
	<clipPath
   id="SVGID_2_">
		<use
   xlink:href="#SVGID_1_"
   style="overflow:visible"
   id="use1" />
	</clipPath>
	<g
   class="st0"
   clip-path="url(#SVGID_2_)"
   id="g2">
		<path
   class="st1"
   d="M 78,116.8 C 78,69.4 116.4,31 163.8,31 c 47.4,0 85.8,38.4 85.8,85.8 0,47.4 -38.4,85.8 -85.8,85.8 0,0 0,0 0,0 C 116.4,202.5 78,164.1 78,116.8 Z"
   id="path1" />
		<path
   class="st2"
   d="m 202.4,81.9 c -7.3,-3.3 -14.9,-5.7 -22.8,-7 -1,1.8 -2.1,4.1 -2.9,6 -8.4,-1.3 -16.9,-1.3 -25.3,0 -0.9,-2.1 -1.9,-4.1 -3,-6 -7.9,1.3 -15.6,3.7 -22.8,7.1 -14.4,21.5 -18.3,42.4 -16.4,63.1 8.5,6.3 17.9,11.1 28,14.1 2.3,-3.1 4.3,-6.3 6,-9.7 -3.3,-1.2 -6.4,-2.7 -9.4,-4.5 0.8,-0.6 1.5,-1.2 2.3,-1.8 17.7,8.4 38.3,8.4 56,0 0.8,0.6 1.5,1.2 2.3,1.8 -3,1.8 -6.2,3.3 -9.5,4.5 1.7,3.4 3.7,6.6 6,9.7 10.1,-3.1 19.6,-7.8 28,-14.1 2.2,-24 -4,-44.8 -16.5,-63.2 z m -56.8,50.4 c -5.5,0 -9.9,-5 -9.9,-11.1 0,-6.1 4.4,-11.2 9.9,-11.2 5.6,0 10,5 10,11.2 -0.1,6.1 -4.4,11.1 -10,11.1 z m 36.8,0 c -5.5,0 -9.9,-5 -9.9,-11.1 0,-6.1 4.4,-11.2 9.9,-11.2 5.6,0 10,5 9.9,11.2 -0.1,6.2 -4.4,11.1 -9.9,11.1 z"
   id="path2" />
	</g>
</g>
<rect
   x="64"
   y="17"
   class="st3"
   width="200"
   height="200"
   id="rect3" />
</svg>
