<?xml version="1.0" encoding="UTF-8" standalone="no"?>
<svg
   version="1.0"
   id="Layer_1"
   x="0px"
   y="0px"
   xml:space="preserve"
   viewBox="78 31 128 128"
   sodipodi:docname="gog.svg"
   width="128"
   height="128"
   inkscape:version="1.4 (86a8ad7, 2024-10-11)"
   xmlns:inkscape="http://www.inkscape.org/namespaces/inkscape"
   xmlns:sodipodi="http://sodipodi.sourceforge.net/DTD/sodipodi-0.dtd"
   xmlns="http://www.w3.org/2000/svg"
   xmlns:svg="http://www.w3.org/2000/svg"><defs
   id="defs3" /><sodipodi:namedview
   id="namedview3"
   pagecolor="#505050"
   bordercolor="#eeeeee"
   borderopacity="1"
   inkscape:showpageshadow="0"
   inkscape:pageopacity="0"
   inkscape:pagecheckerboard="0"
   inkscape:deskcolor="#505050"
   inkscape:zoom="4"
   inkscape:cx="67.625"
   inkscape:cy="114.25"
   inkscape:window-width="1920"
   inkscape:window-height="1017"
   inkscape:window-x="-8"
   inkscape:window-y="-8"
   inkscape:window-maximized="1"
   inkscape:current-layer="Layer_1" />
<style
   type="text/css"
   id="style1">
	.st0{clip-path:url(#SVGID_2_);}
	.st1{fill:#5865F2;}
	.st2{fill:#FFFFFF;}
	.st3{fill:none;}
</style>


<ellipse
   style="fill:#ffffff;stroke-width:1.00401;fill-opacity:1"
   id="path3"
   ry="64.006508"
   rx="64.00412"
   cy="95.007812"
   cx="142.00412" /><g
   id="g4"
   transform="matrix(0.94558992,0,0,0.94558992,100.6,56.454505)"><path
     d="m 6.6,66.85 3.85,6.65 c 0.8,1.4 1.95,2.5 3.3,3.3 L 27.5,53 H 0 c 0,1.55 0.4,3.1 1.2,4.5 z"
     fill="#0066da"
     id="path1-0" /><path
     d="M 43.65,25 29.9,1.2 C 28.55,2 27.4,3.1 26.6,4.5 L 1.2,48.5 A 9.06,9.06 0 0 0 0,53 h 27.5 z"
     fill="#00ac47"
     id="path2-9" /><path
     d="m 73.55,76.8 c 1.35,-0.8 2.5,-1.9 3.3,-3.3 l 1.6,-2.75 7.65,-13.25 c 0.8,-1.4 1.2,-2.95 1.2,-4.5 H 59.798 l 5.852,11.5 z"
     fill="#ea4335"
     id="path3-4" /><path
     d="M 43.65,25 57.4,1.2 C 56.05,0.4 54.5,0 52.9,0 H 34.4 c -1.6,0 -3.15,0.45 -4.5,1.2 z"
     fill="#00832d"
     id="path4" /><path
     d="M 59.8,53 H 27.5 L 13.75,76.8 c 1.35,0.8 2.9,1.2 4.5,1.2 h 50.8 c 1.6,0 3.15,-0.45 4.5,-1.2 z"
     fill="#2684fc"
     id="path5" /><path
     d="M 73.4,26.5 60.7,4.5 C 59.9,3.1 58.75,2 57.4,1.2 L 43.65,25 59.8,53 h 27.45 c 0,-1.55 -0.4,-3.1 -1.2,-4.5 z"
     fill="#ffba00"
     id="path6" /></g></svg>
